<svg xmlns="http://www.w3.org/2000/svg" version="1.1" xmlns:xlink="http://www.w3.org/1999/xlink" width="512" height="512"><svg xmlns="http://www.w3.org/2000/svg" version="1.1" xmlns:xlink="http://www.w3.org/1999/xlink" width="512" height="512"><svg xmlns="http://www.w3.org/2000/svg" height="512" preserveAspectRatio="none" style="display: block;" version="1.1" viewBox="0 0 2048 2048" width="512">
<defs>
	<linearGradient gradientUnits="userSpaceOnUse" id="Gradient1" x1="1736.88" x2="878.53" y1="1055.66" y2="962.241">
		<stop class="stop0" offset="0" stop-color="rgb(101,5,238)" stop-opacity="1"></stop>
		<stop class="stop1" offset="1" stop-color="rgb(167,9,247)" stop-opacity="1"></stop>
	</linearGradient>
</defs>
<path d="M 1228.84 319.14 C 1241.17 318.114 1273.11 319.104 1286.65 319.118 L 1795.55 319.14 C 1842.74 319.98 1808.24 359.005 1795.55 376.961 C 1786.59 391.545 1769.55 412.897 1758.83 427.379 L 1522.25 752.934 C 1501.79 781.534 1482.79 807.26 1462.91 836.51 L 1634.88 836.551 C 1653.33 836.552 1734.11 833.996 1745.4 838.297 C 1783.2 852.688 1716.47 903.593 1705.81 915.01 L 964.859 1702.45 C 946.665 1722.67 920.205 1711.34 929.627 1687.91 C 938.192 1666.61 947.84 1645.76 957.27 1624.92 L 1197.52 1078.1 L 968.638 1078.05 C 952.945 1078.04 888.845 1080.47 878.948 1076.94 C 853.218 1067.78 877.83 1031.59 884.971 1016.92 L 972.665 836.983 C 983.233 814.793 993.169 792.273 1004.61 770.481 C 1016.72 747.408 1036.63 757.614 1042.87 777.672 C 1039.21 789.818 1019.73 826.469 1013.35 840.363 C 982.586 907.341 947.871 973.019 917.029 1040.02 L 1137.3 1040.01 C 1154.24 1040.01 1227.05 1038.75 1238.16 1041.91 C 1258.49 1058.01 1232.5 1095.05 1223.29 1115.46 L 1089.15 1421.55 C 1065.87 1474.52 1039.95 1531.11 1019.07 1584.88 C 1053.49 1551.51 1087.07 1512.78 1119.92 1477.8 L 1692.48 875.901 L 1515.14 875.901 C 1498.53 875.912 1377.78 889.125 1407.91 846.16 C 1416.68 833.644 1426.22 822.04 1435.16 809.716 L 1565.95 625.582 C 1630.11 535.485 1695.81 445.841 1762.85 357.91 L 1249.93 357.91 C 1195.69 459.701 1147.74 568.058 1095.59 671.417 C 1089.13 684.222 1080.94 706.134 1072.79 716.694 C 1059.88 733.431 1028.03 719.412 1040.98 692.957 L 1189.45 395.873 C 1198.76 377.471 1217.21 331.445 1228.84 319.14 z" fill="url(#Gradient1)" transform="translate(0,0)"></path>
<path d="M 1795.55 319.14 C 1842.74 319.98 1808.24 359.005 1795.55 376.961 C 1795.03 366.114 1811.57 356.38 1814.18 347.751 L 1813.28 346.412 C 1810.05 346.255 1809.12 346.4 1806.11 345.032 C 1792.76 322.601 1821.11 321.066 1780.19 320.714 C 1785.34 320.408 1789.43 320.215 1794.56 319.32 L 1795.55 319.14 z" fill="rgb(36,0,238)" transform="translate(0,0)"></path>
<path d="M 556.732 447.35 L 942.181 447.333 C 952.301 447.329 973.09 445.821 982.179 447.65 C 1003.45 451.93 1000.25 475.272 985.01 485.939 C 976.901 487.103 962.057 486.121 953.247 486.044 L 671.5 485.939 L 298.899 485.985 C 280.23 486.019 230.24 493.832 228.85 468.254 C 227.406 441.683 271.839 447.258 289.81 447.333 L 556.732 447.35 z" fill="rgb(212,0,241)" transform="translate(0,0)"></path>
<path d="M 268.422 1328.83 L 869.254 1328.81 C 894.275 1328.81 919.235 1328.61 944.317 1329.06 C 969.28 1329.5 971.095 1353.36 955.053 1366.96 C 943.74 1369.59 940.638 1368.61 929.267 1366.96 C 900.873 1370.03 858.03 1366.94 827.878 1366.95 L 291.004 1366.97 C 278.2 1367 241.371 1369.63 235.615 1361.63 C 211.289 1327.84 252.437 1328.57 268.422 1328.83 z" fill="rgb(212,0,241)" transform="translate(0,0)"></path>
<path d="M 326.779 1551.81 L 731.739 1551.75 C 749.041 1551.72 766.732 1551.52 784.017 1551.96 C 809.336 1552.8 811.755 1586.79 789.795 1589.97 C 782.697 1590.99 772.445 1590.11 764.449 1590.09 L 708.75 1590.04 L 303.012 1590.1 C 285.309 1590.12 267.687 1590.31 249.937 1589.86 C 225.622 1589.24 223.355 1554.61 245.555 1552.92 C 271.855 1550.93 300.399 1551.75 326.779 1551.81 z" fill="rgb(212,0,241)" transform="translate(0,0)"></path>
<path d="M 728.981 888.105 C 741.379 888.166 782.387 884.884 791.328 891.52 C 803.977 900.91 801.84 925.889 779.22 926.407 C 763.053 926.777 744.432 926.793 727.596 926.779 L 301.836 926.718 C 288.589 926.768 244.426 929.857 235.054 921.992 C 220.14 909.475 228.244 890.21 246.101 888.662 C 264.39 887.077 283.501 888.072 301.867 888.079 L 728.981 888.105 z" fill="rgb(212,0,241)" transform="translate(0,0)"></path>
<path d="M 242.109 1110.98 C 323.9 1109.54 410.411 1110.99 492.561 1110.99 L 614.419 1110.94 C 632.299 1110.92 676.64 1109.28 694.432 1112.98 C 706.136 1115.41 714.78 1142.15 692.432 1150.01 C 676.525 1150.63 656.617 1150.07 640.365 1150.05 L 242.109 1150.01 C 224.962 1139.29 221.742 1120.28 242.109 1110.98 z" fill="rgb(212,0,241)" transform="translate(0,0)"></path>
<path d="M 645.676 668.894 C 705.451 667.23 772.401 668.972 832.916 668.975 L 886.793 668.757 C 895.339 668.711 912.466 667.684 920.186 669.769 C 940.714 675.312 939.868 697.575 921.867 707.009 C 910.22 708.056 888.736 707.042 875.91 707.034 L 694.785 707.045 C 681.43 707.044 662.059 708.179 649.42 706.124 C 628.084 702.654 629.29 679.822 645.676 668.894 z" fill="rgb(212,0,241)" transform="translate(0,0)"></path>
<path d="M 242.109 668.894 L 370.684 668.879 C 389.638 668.873 413.025 667.517 431.783 670.009 C 446.501 671.965 447.026 698.664 429.304 707.009 C 381.258 710.38 286.528 709.755 241.125 705.716 C 228.528 704.596 218.869 679.484 242.109 668.894 z" fill="rgb(212,0,241)" transform="translate(0,0)"></path>
<metadata><recraft-signature>{"signed_by": "recraft", "signature_b64": "+BCAM0tbGJKbOXoy0FZOM1qjRaCfR1TKTL4nZNBes8cTs7JQ+ycAJbA2i7wjdG28TjytEcNSq8pqw2rYyiCsAg==", "signing_algo": "Ed25519", "generation_timestamp": 1767962560, "identifier": "465ed4ea-8c88-4ef2-b7d1-cb743243ff78"}</recraft-signature></metadata></svg></svg><style>@media (prefers-color-scheme: light) { :root { filter: none; } }
@media (prefers-color-scheme: dark) { :root { filter: none; } }
</style></svg>